<?xml version="1.0" encoding="UTF-8" standalone="no"?>
<!-- Created with Inkscape (http://www.inkscape.org/) -->

<svg
   width="95.599998mm"
   height="95.600006mm"
   viewBox="0 0 95.599998 95.600006"
   version="1.1"
   id="svg1"
   xmlns:inkscape="http://www.inkscape.org/namespaces/inkscape"
   xmlns:sodipodi="http://sodipodi.sourceforge.net/DTD/sodipodi-0.dtd"
   xmlns="http://www.w3.org/2000/svg"
   xmlns:svg="http://www.w3.org/2000/svg">
  <sodipodi:namedview
     id="namedview1"
     pagecolor="#ffffff"
     bordercolor="#999999"
     borderopacity="1"
     inkscape:showpageshadow="2"
     inkscape:pageopacity="0"
     inkscape:pagecheckerboard="0"
     inkscape:deskcolor="#d1d1d1"
     inkscape:document-units="mm"
     inkscape:export-bgcolor="#ffffff00" />
  <defs
     id="defs1" />
  <g
     inkscape:label="main"
     inkscape:groupmode="layer"
     id="layer1"
     transform="translate(-57.336469)">
    <rect
       style="fill:#ffffff;fill-opacity:0;stroke:#83c181;stroke-width:14.621;stroke-dasharray:none;stroke-opacity:1"
       id="rect2"
       width="80.978996"
       height="80.979004"
       x="-145.4895"
       y="9.5105019"
       ry="14.78583"
       transform="matrix(-1,0,0,1,0.13646317,-2.2000017)" />
    <g
       id="g3"
       transform="translate(0.13646317,-2.2000017)">
      <rect
         style="fill:#bcbcbc;fill-opacity:1;stroke:#83c181;stroke-width:7.70143;stroke-dasharray:none;stroke-opacity:1"
         id="rect3"
         width="25.013689"
         height="5.1806016"
         x="64.51738"
         y="76.305679"
         ry="0" />
      <rect
         style="fill:#bcbcbc;fill-opacity:1;stroke:#83c181;stroke-width:7.53336;stroke-dasharray:none;stroke-opacity:1"
         id="rect3-4"
         width="23.181761"
         height="5.3486729"
         x="120.38489"
         y="76.22168"
         ry="0" />
      <rect
         style="fill:#bcbcbc;fill-opacity:1;stroke:#83c181;stroke-width:6.55354;stroke-dasharray:none;stroke-opacity:1"
         id="rect3-0"
         width="14.828208"
         height="6.3282027"
         x="62.110104"
         y="63.722599"
         ry="0" />
      <rect
         style="fill:#bcbcbc;fill-opacity:1;stroke:#83c181;stroke-width:6.46748;stroke-dasharray:none;stroke-opacity:1"
         id="rect3-0-6"
         width="14.247597"
         height="6.4142575"
         x="133.01868"
         y="63.679741"
         ry="0" />
      <path
         sodipodi:type="star"
         style="fill:#83c181;fill-opacity:1;stroke:#83c181;stroke-width:5;stroke-dasharray:none;stroke-opacity:1"
         id="path5-1"
         inkscape:flatsided="false"
         sodipodi:sides="3"
         sodipodi:cx="44.166664"
         sodipodi:cy="116.5"
         sodipodi:r1="19.267128"
         sodipodi:r2="9.633564"
         sodipodi:arg1="0.52558379"
         sodipodi:arg2="1.5727813"
         inkscape:rounded="0"
         inkscape:randomized="0"
         d="m 60.833331,126.16667 -16.685789,-0.0331 -16.68579,-0.0331 8.371579,-14.43375 8.371579,-14.43376 8.31421,14.46688 z"
         inkscape:transform-center-x="-0.0020341543"
         inkscape:transform-center-y="5.4034894"
         transform="matrix(0.51755839,0.00268624,0.00123845,-1.1225998,67.041192,160.04711)" />
      <path
         sodipodi:type="star"
         style="fill:#83c181;fill-opacity:1;stroke:#83c181;stroke-width:5;stroke-dasharray:none;stroke-opacity:1"
         id="path5-1-9"
         inkscape:flatsided="false"
         sodipodi:sides="3"
         sodipodi:cx="44.166664"
         sodipodi:cy="116.5"
         sodipodi:r1="19.267128"
         sodipodi:r2="9.633564"
         sodipodi:arg1="0.52558379"
         sodipodi:arg2="1.5727813"
         inkscape:rounded="0"
         inkscape:randomized="0"
         d="m 60.833331,126.16667 -16.685789,-0.0331 -16.68579,-0.0331 8.371579,-14.43375 8.371579,-14.43376 8.31421,14.46688 z"
         inkscape:transform-center-x="-0.0020341543"
         inkscape:transform-center-y="5.4034894"
         transform="matrix(0.51755839,0.00268624,0.00123845,-1.1225998,96.674544,160.04703)" />
      <path
         sodipodi:type="star"
         style="fill:#83c181;fill-opacity:1;stroke:#83c181;stroke-width:5;stroke-dasharray:none;stroke-opacity:1"
         id="path5-1-9-7"
         inkscape:flatsided="false"
         sodipodi:sides="3"
         sodipodi:cx="44.166664"
         sodipodi:cy="116.5"
         sodipodi:r1="19.267128"
         sodipodi:r2="9.633564"
         sodipodi:arg1="0.52558379"
         sodipodi:arg2="1.5727813"
         inkscape:rounded="0"
         inkscape:randomized="0"
         d="m 60.833331,126.16667 -16.685789,-0.0331 -16.68579,-0.0331 8.371579,-14.43375 8.371579,-14.43376 8.31421,14.46688 z"
         inkscape:transform-center-x="-0.0015359841"
         inkscape:transform-center-y="-3.8894428"
         transform="matrix(0.39078046,-0.00193356,9.3508777e-4,0.80804912,77.96819,-19.857614)" />
      <path
         sodipodi:type="star"
         style="fill:#83c181;fill-opacity:1;stroke:#83c181;stroke-width:5;stroke-dasharray:none;stroke-opacity:1"
         id="path5-1-9-7-5"
         inkscape:flatsided="false"
         sodipodi:sides="3"
         sodipodi:cx="44.166664"
         sodipodi:cy="116.5"
         sodipodi:r1="19.267128"
         sodipodi:r2="9.633564"
         sodipodi:arg1="0.52558379"
         sodipodi:arg2="1.5727813"
         inkscape:rounded="0"
         inkscape:randomized="0"
         d="m 60.833331,126.16667 -16.685789,-0.0331 -16.68579,-0.0331 8.371579,-14.43375 8.371579,-14.43376 8.31421,14.46688 z"
         inkscape:transform-center-x="-0.0015359841"
         inkscape:transform-center-y="-3.8894428"
         transform="matrix(0.39078046,-0.00193356,9.3508777e-4,0.80804912,97.018201,-19.857235)" />
    </g>
    <g
       id="g7">
      <rect
         style="fill:#d1908e;fill-opacity:0;stroke:#ee8d89;stroke-width:3.77307;stroke-dasharray:none;stroke-opacity:1"
         id="rect6"
         width="2.8935864"
         height="29.393583"
         x="103.55321"
         y="50.053207"
         ry="0.98671049" />
      <path
         sodipodi:type="star"
         style="fill:#e1a09e;fill-opacity:0;stroke:#ee8d89;stroke-width:4.99999;stroke-dasharray:none;stroke-opacity:1"
         id="path6"
         inkscape:flatsided="false"
         sodipodi:sides="3"
         sodipodi:cx="15.666666"
         sodipodi:cy="40.333328"
         sodipodi:r1="4.0311289"
         sodipodi:r2="2.0155644"
         sodipodi:arg1="0.51914611"
         sodipodi:arg2="1.5663437"
         inkscape:rounded="0"
         inkscape:randomized="0"
         d="m 19.166666,42.333328 -3.491025,0.01554 -3.491026,0.01554 1.732051,-3.031089 1.732051,-3.031089 1.758974,3.015545 z"
         inkscape:transform-center-x="-0.011224027"
         inkscape:transform-center-y="-0.85181109"
         transform="matrix(0.80637152,-0.00209878,0.00197829,0.85548346,92.26191,43.926843)" />
    </g>
    <path
       d="m 79.58894,7.4713786 c -0.506129,0 -1.006026,0.025721 -1.498616,0.075448 -0.49259,0.049726 -0.978054,0.1236178 -1.454692,0.2206583 -0.476637,0.097041 -0.944225,0.2172092 -1.402498,0.3591512 -0.458273,0.1419421 -0.907125,0.3054614 -1.344621,0.4898926 -0.437496,0.1844312 -0.863652,0.3899249 -1.277958,0.6144328 -0.414306,0.2245079 -0.81639,0.4680159 -1.205094,0.730188 -0.388705,0.2621715 -0.764306,0.5428345 -1.124996,0.8402585 -0.36069,0.297424 -0.706883,0.611798 -1.037146,0.942061 -0.330263,0.330263 -0.644638,0.676456 -0.942062,1.037146 -0.297424,0.36069 -0.57757,0.735775 -0.839742,1.124479 -0.262172,0.388705 -0.506197,0.790788 -0.730704,1.205095 -0.224508,0.414306 -0.429485,0.840979 -0.613916,1.278475 -0.184432,0.437496 -0.348468,0.885831 -0.49041,1.344104 -0.141942,0.458273 -0.262111,0.926377 -0.359151,1.403015 -0.09704,0.476637 -0.170932,0.962102 -0.220658,1.454691 -0.04973,0.49259 -0.07493,0.992488 -0.07493,1.498617 v 50.821704 c 0,0.50613 0.0252,1.006544 0.07493,1.499133 0.04973,0.49259 0.123617,0.977538 0.220658,1.454175 0.09704,0.476638 0.217209,0.944742 0.359151,1.403015 0.141942,0.458273 0.305978,0.906608 0.49041,1.344104 0.184431,0.437496 0.389408,0.864169 0.613916,1.278475 0.224507,0.414307 0.468532,0.81639 0.730704,1.205095 0.262172,0.388704 0.542318,0.763789 0.839742,1.124479 0.297424,0.36069 0.611799,0.706883 0.942062,1.037146 0.330263,0.330263 0.676456,0.644637 1.037146,0.942061 0.36069,0.297424 0.736291,0.578087 1.124996,0.840259 0.388704,0.262172 0.790788,0.506197 1.205094,0.730705 0.414306,0.224508 0.840462,0.429485 1.277958,0.613916 0.437496,0.184431 0.886348,0.34795 1.344621,0.489892 0.458273,0.141942 0.925861,0.262111 1.402498,0.359152 0.476638,0.09704 0.962102,0.170931 1.454692,0.220658 0.49259,0.04973 0.992487,0.07545 1.498616,0.07545 h 50.82222 c 0.50613,0 1.00603,-0.02572 1.49862,-0.07545 0.49259,-0.04973 0.97754,-0.123618 1.45417,-0.220658 0.47664,-0.09704 0.94474,-0.21721 1.40302,-0.359152 0.45827,-0.141942 0.90712,-0.305461 1.34462,-0.489892 0.43749,-0.184431 0.86365,-0.389408 1.27796,-0.613916 0.4143,-0.224508 0.81639,-0.468533 1.20509,-0.730705 0.38871,-0.262172 0.76431,-0.542835 1.125,-0.840259 0.36069,-0.297424 0.70636,-0.611798 1.03663,-0.942061 0.33026,-0.330263 0.64515,-0.676456 0.94257,-1.037146 0.29743,-0.36069 0.57757,-0.735775 0.83975,-1.124479 0.26217,-0.388705 0.50619,-0.790788 0.7307,-1.205095 0.22451,-0.414306 0.42949,-0.840979 0.61392,-1.278475 0.18443,-0.437496 0.34846,-0.885831 0.49041,-1.344104 0.14194,-0.458273 0.26211,-0.926377 0.35915,-1.403015 0.097,-0.476637 0.17093,-0.961585 0.22066,-1.454175 0.0497,-0.492589 0.0749,-0.993003 0.0749,-1.499133 V 22.089091 c 0,-0.506129 -0.0252,-1.006027 -0.0749,-1.498617 -0.0497,-0.492589 -0.12362,-0.978054 -0.22066,-1.454691 -0.097,-0.476638 -0.21721,-0.944742 -0.35915,-1.403015 -0.14195,-0.458273 -0.30598,-0.906608 -0.49041,-1.344104 -0.18443,-0.437496 -0.38941,-0.864169 -0.61392,-1.278475 -0.22451,-0.414307 -0.46853,-0.81639 -0.7307,-1.205095 -0.26218,-0.388704 -0.54232,-0.763789 -0.83975,-1.124479 -0.29742,-0.36069 -0.61231,-0.706883 -0.94257,-1.037146 -0.33027,-0.330263 -0.67594,-0.644637 -1.03663,-0.942061 -0.36069,-0.297424 -0.73629,-0.578087 -1.125,-0.8402589 -0.3887,-0.2621721 -0.79079,-0.5056801 -1.20509,-0.730188 -0.41431,-0.2245079 -0.84047,-0.4300016 -1.27796,-0.6144328 -0.4375,-0.1844312 -0.88635,-0.3479505 -1.34462,-0.4898926 -0.45828,-0.141942 -0.92638,-0.2621107 -1.40302,-0.3591512 -0.47663,-0.097041 -0.96158,-0.1709319 -1.45417,-0.2206583 -0.49259,-0.049727 -0.99249,-0.075448 -1.49862,-0.075448 z"
       style="fill:#ffffff;fill-opacity:0;stroke:#bfe5bc;stroke-width:4.94307;stroke-opacity:1"
       id="path7" />
  </g>
</svg>
